<?xml version="1.0" encoding="utf-8"?>
<!-- Generator: Adobe Illustrator 27.1.1, SVG Export Plug-In . SVG Version: 6.00 Build 0)  -->
<svg version="1.1" id="Layer_1" xmlns="http://www.w3.org/2000/svg" xmlns:xlink="http://www.w3.org/1999/xlink" x="0px" y="0px"
	 viewBox="0 0 1200 800" style="enable-background:new 0 0 1200 800;" xml:space="preserve">
<g>
	<polyline points="1010.2,386.5 1010.2,459.7 1034.4,459.7 1034.4,411 1122.6,411 1122.6,459.7 1146.8,459.7 1146.8,386.6 
		1010.2,386.5 	"/>
	<path d="M1031.7,362.8h93.1c12.9-2.5,22.6-13.6,25.3-24.3h-143.7C1009.1,349.3,1018.9,360.3,1031.7,362.8"/>
</g>
<path d="M885.8,459.8c12.2-5,18.8-13.7,21.3-23.9H798.4l0.1-97.4l-24.4,0.1v121.2H885.8"/>
<path d="M562.1,362.4h86.1c13-3.7,23.9-13.2,26.5-23.9H538v71.6h111.9v25.1l-87.8,0.1c-13.8,3.7-25.4,12.7-31.2,24.5l7.1-0.1h136
	v-73.4H562.1L562.1,362.4"/>
<g>
	<path d="M312.6,362.8h93c12.9-2.5,22.6-13.5,25.3-24.3H287.3C290,349.2,299.8,360.3,312.6,362.8"/>
	<path d="M312.6,410.6h93c12.9-2.5,22.6-13.5,25.3-24.2H287.3C290,397.1,299.8,408.1,312.6,410.6"/>
	<path d="M312.6,459.7h93c12.9-2.5,22.6-13.5,25.3-24.2H287.3C290,446.2,299.8,457.3,312.6,459.7"/>
</g>
<path d="M36.1,338.8c2.8,10.6,12.2,21.4,25.2,24.1h39.2l2,0.8v95.8h24.5v-95.8l2.2-0.8h39.2c13.1-3.3,22.3-13.5,25.1-24.1v-0.2H36.1
	V338.8"/>
</svg>
